<?xml version="1.0" encoding="utf-8"?>
<!-- Generator: Adobe Illustrator 25.2.0, SVG Export Plug-In . SVG Version: 6.00 Build 0)  -->
<svg version="1.1" id="Layer_1" xmlns="http://www.w3.org/2000/svg" xmlns:xlink="http://www.w3.org/1999/xlink" x="0px" y="0px"
	 viewBox="0 0 600 600" style="enable-background:new 0 0 600 600;" xml:space="preserve">
<style type="text/css">
	.st0{fill:#ED2024;}
</style>
<g>
	<path class="st0" d="M464.5,124h-329c-46.9,0-73,54.3-43.7,90.9l164.5,205.5c22.4,28,65,28,87.4,0l164.5-205.5
		C537.5,178.3,511.4,124,464.5,124z M405.8,205l-100,124.9c-3,3.7-8.7,3.7-11.7,0L194.2,205c-3.9-4.9-0.4-12.2,5.8-12.2h200
		C406.3,192.9,409.7,200.1,405.8,205z"/>
</g>
<rect x="185" y="184" class="st0" width="228" height="87"/>
<rect x="238" y="252" class="st0" width="122" height="90"/>
</svg>
