<?xml version="1.0" encoding="utf-8"?>
<!-- Generator: Adobe Illustrator 25.2.0, SVG Export Plug-In . SVG Version: 6.00 Build 0)  -->
<svg version="1.1" id="Layer_1" xmlns="http://www.w3.org/2000/svg" xmlns:xlink="http://www.w3.org/1999/xlink" x="0px" y="0px"
	 viewBox="0 0 560 400" style="enable-background:new 0 0 560 400;" xml:space="preserve">
<style type="text/css">
	.st0{opacity:0;fill-rule:evenodd;clip-rule:evenodd;fill:#AB0003;}
	.st1{opacity:0;fill-rule:evenodd;clip-rule:evenodd;fill:#14264B;}
	.st2{opacity:0;fill-rule:evenodd;clip-rule:evenodd;fill:#FFFFFF;}
</style>
<path class="st0" d="M280,50c-82.8,0-150,67.2-150,150c0,82.8,67.2,150,150,150c82.8,0,150-67.2,150-150C430,117.2,362.8,50,280,50"
	/>
<path class="st1" d="M280,58.3c-78.3,0-141.7,63.4-141.7,141.7c0,78.2,63.4,141.7,141.7,141.7c78.2,0,141.7-63.4,141.7-141.7
	C421.7,121.8,358.2,58.3,280,58.3"/>
<path class="st0" d="M280,98.1c-56.3,0-101.9,45.6-101.9,101.9S223.7,301.9,280,301.9S381.9,256.3,381.9,200
	C381.9,143.7,336.3,98.1,280,98.1"/>
<path class="st1" d="M280,104c-53,0-96,43-96,96c0,53,43,96,96,96s96-43,96-96C376,147,333,104,280,104"/>
<path class="st2" d="M280.4,65l-2,25.3l4.7,0.4l1.1-14.7l13.2,16.1l1.2,0.1l2-25.3l-4.7-0.4l-1.1,14.7L281.6,65L280.4,65L280.4,65z
	 M263.1,66.7l-4.9,0.7l3.6,24.8l4.9-0.7L263.1,66.7L263.1,66.7z M241.1,71l-4.7,1.8l4.7,12.3l-9.5,3.7L227,76.4l-4.7,1.8l9,23.4
	l4.7-1.8l-2.6-6.8l9.5-3.7l2.6,6.8l4.7-1.8L241.1,71z M324.5,73.8c-5.3,0-9.8,3.2-11.8,8.3c-2.6,6.8,0.8,14,7.9,16.8
	c2,0.8,3.9,1.2,5.8,1.2c1.5,0,2.9-0.2,4.4-0.7l0.3-0.1l3.5-9l-10.3-4l-1.6,4.3l5.9,2.3l-1,2.5c-1.6,0.3-3.3,0.1-5.3-0.7
	c-4.6-1.8-6.5-6-4.7-10.6c1.3-3.4,4.1-5.5,7.3-5.5c0.9,0,1.9,0.2,2.8,0.5c3.2,1.2,4.1,3,4.7,4.6l0.2,0.6l4.4-1.8l-0.2-0.6
	c-1.3-3.4-3.6-5.7-7.4-7.1C327.7,74.1,326.1,73.8,324.5,73.8L324.5,73.8z M351.3,85.7l-2.7,3.7l5.7,4.2l-12.1,16.5l4,2.9l12.1-16.5
	l5.7,4.2l2.7-3.7L351.3,85.7L351.3,85.7z M204.5,89.7c-1.4,0.2-2.7,0.7-4.1,1.7c-1.7,1.2-2.8,2.8-3.1,4.6c-0.3,1.8,0.1,3.6,1.3,5.2
	c1.5,2,3.4,3,5.9,3c1,0,2.2-0.1,3.6-0.5l1.8-0.4c0.9-0.2,1.8-0.4,2.5-0.4c1,0,1.7,0.3,2.2,1.1c0.4,0.5,0.5,1,0.4,1.6
	c-0.1,0.9-0.8,1.8-1.8,2.5c-1.8,1.3-3.7,1.5-5.6,0.5l-0.6-0.3l-2.2,4.2l0.6,0.3c1.4,0.7,2.9,1.1,4.4,1.1c2.1,0,4.2-0.7,6.1-2.1
	c4.2-3.1,5.2-7.2,2.6-10.8c-1.5-2.1-3.4-3.1-6-3.1c-1,0-2.2,0.1-3.8,0.5l-1.8,0.4c-1.1,0.2-1.9,0.4-2.6,0.4c-0.9,0-1.5-0.3-2-1
	c-0.8-1.1-0.5-2.3,0.7-3.2c1.2-0.9,2.4-1,3.9-0.3l0.6,0.3l1.6-4.3l-0.6-0.2C207.3,89.7,205.9,89.5,204.5,89.7L204.5,89.7z
	 M375.1,111c-2.9,0-5.7,1-8,2.9c-2.8,2.2-4.5,5.3-4.8,8.7c-0.3,3.3,0.7,6.7,2.9,9.4c2.5,3.1,6.2,4.9,10,4.9c2.9,0,5.7-1,8-2.9
	c2.8-2.2,4.5-5.3,4.8-8.7c0.3-3.3-0.7-6.7-2.9-9.4C382.7,112.8,379,111,375.1,111L375.1,111z M176,114.1l-0.6,0.8l12.8,24.7l3.2-3.9
	l-2.1-3.9l5.8-7.1l4.3,1.3l3.3-4.1L176,114.1L176,114.1L176,114.1z M375.6,115.9c2.3,0,4.4,1,5.9,2.9c2.8,3.5,2.2,8.2-1.5,11.2
	c-1.6,1.3-3.5,2-5.3,2c-2.3,0-4.4-1-5.9-2.9c-2.8-3.5-2.2-8.2,1.5-11.2C371.9,116.6,373.8,115.9,375.6,115.9z M183.7,121.1l5.9,1.8
	l0.8,0.2l-3.4,4.2L183.7,121.1L183.7,121.1L183.7,121.1z M162.8,132.2l-2,4.6l11.1,9.8l-15.8,0.1l-0.4,1l10.9,11.4l-14.8-1.2
	l-2.1,4.9l26.8,1.7l0.4-0.9l-11.7-12.4l17,0l0.4-1L162.8,132.2L162.8,132.2z M401.6,141.1l-23.6,9.3l1.8,4.4l13.7-5.4l-8.6,18.7
	l-0.1,0.2l0.4,1.1l23.6-9.3l-1.8-4.4l-13.7,5.4l8.7-18.9L401.6,141.1z M183,250.5l-21.3,13.8l2.6,4l12.4-8l-4.9,20.2l0.7,1
	l21.3-13.8l-2.6-4l-12.4,8l4.8-20.2L183,250.5z M379.7,253.4c-3.1,0-5.5,1.4-7.1,4.1c-1.1,1.7-1.5,3.7-1.1,5.4
	c0.4,1.8,1.5,3.3,3.1,4.3c1.2,0.7,2.4,1.1,3.7,1.1c1.8,0,3.6-0.7,6.1-2.4l1.5-1c1.2-0.8,2.3-1.6,3.3-1.6c0.5,0,0.9,0.1,1.4,0.4
	c0.5,0.3,0.8,0.8,1,1.3c0.2,0.9-0.1,1.9-0.7,3c-1.2,1.9-2.9,2.8-5,2.6l-0.6,0l-0.4,4.8l0.6,0c0.2,0,0.5,0,0.7,0c3.6,0,6.6-1.8,8.6-5
	c1.5-2.4,2-4.8,1.5-6.8c-0.4-1.7-1.5-3.1-3.2-4.2c-1.3-0.8-2.6-1.2-3.9-1.2c-2.1,0-4,1-6.1,2.5l-1.5,1c-1.5,1-2.5,1.6-3.3,1.6
	c-0.4,0-0.8-0.1-1.2-0.4c-1.1-0.7-1.3-1.9-0.6-3.2c0.8-1.3,1.8-1.8,3.3-1.8l0.8,0l-0.1-4.6L379.7,253.4L379.7,253.4L379.7,253.4z
	 M355.6,278.9l-3.5,3.5l17.7,17.8l11-10.9l-3.2-3.2l-7.4,7.4L355.6,278.9L355.6,278.9z M207.9,281.5l-25.1,12l3.8,3.4l4-2l6.9,6
	l-1.4,4.2l4,3.5l8.5-26.5L207.9,281.5z M201.4,289.6l-2,5.9l-0.3,0.8l-4.1-3.6l0.8-0.4L201.4,289.6L201.4,289.6z M220.5,292.2
	l-2.1,4l6.2,3.3l-9.6,18.1l4.4,2.3l9.6-18.1l6.2,3.3l2.1-4L220.5,292.2L220.5,292.2z M335.3,293.6l-0.8,0.5l3.6,27.6l4.4-2.6
	l-0.6-4.4l7.9-4.7l3.6,2.7l4.5-2.7L335.3,293.6L335.3,293.6z M340.1,302.9l5,3.7l0.7,0.5l-4.7,2.8L341,309L340.1,302.9L340.1,302.9z
	 M317.1,303.3l-4.6,1.2l3.6,14.3l-17.4-10.9l-0.2-0.1l-1.1,0.3l6.3,24.6l4.6-1.2l-3.7-14.3l17.4,10.9l0.2,0.1l1.1-0.3L317.1,303.3
	L317.1,303.3z M247.1,304.3l-7,24.1l4.8,1.4l7-24.1L247.1,304.3z M275,308.8c-7.3-0.3-13.2,5-13.5,12.2c-0.3,7.2,5.1,13.1,12.3,13.4
	c0.2,0,0.4,0,0.6,0c7,0,12.5-5.3,12.8-12.3C287.6,315.1,282.2,309.2,275,308.8z M274.4,313.5l0.4,0c2.2,0.1,4.1,1,5.5,2.6
	c1.3,1.6,2,3.7,1.9,6c-0.2,4.8-3.6,8-8.1,7.8c-4.5-0.2-7.6-3.8-7.4-8.5C266.9,316.7,270.1,313.5,274.4,313.5L274.4,313.5z M280,110
	c-49.7,0-90.1,40.3-90.1,90.1c0,49.7,40.3,90.1,90.1,90.1c49.7,0,90.1-40.3,90.1-90.1C370.1,150.3,329.8,110,280,110"/>
<path class="st1" d="M282.8,183.8c4.9-11.7,14.7-14.6,14.7,0c0,15.9-7.9,34.7-14.8,46.4C276.1,217.1,277,197.5,282.8,183.8
	 M331.1,136c-12.9-10.3-24.6,2.6-24.6,10c12.9,2.8,24.4,15.6,19.3,49.2c-4.2,27.4-20.4,44.5-30.5,44.8c6.4-9.2,12.1-19.4,15.8-30.8
	c3.5-10.6,5.1-19.6,5.1-27c0-10.3-2.8-17.9-6.7-22.9c-1.9-2.5-4.1-4.4-6.4-5.6c-2.2-1.2-4.8-1.9-6.9-1.9c-5.3,0-10.5,2.2-14.6,5.6
	c-6.2,5.2-11.1,13.3-14.4,22.5c-3.4,9.3-5.3,19.9-5.3,30.1c0,8,1.2,15.8,3.8,22.8c1.6,4.2,3.8,8.1,6.5,11.4
	c-1.8,1.7-3.6,3.2-5.4,4.5c-3.9,2.6-7.7,4-11.5,4c-1.8,0-3.6-0.3-5.5-1c-2.6-1-4.3-2.7-5.7-5.5c-1.3-2.8-2-6.7-2-11.4
	c0-11.6,4.2-27.8,10.7-43.9c6.2-15.3,14.3-30.5,22.6-42.1c-1.8-0.1-4.1-0.1-5.6-0.1c-22,0-38,5.1-48.6,12.5
	c-10.6,7.4-15.8,17.3-15.8,26.5c0,6,2.2,11.6,6.5,15.8c2.4,2.5,5.5,3.9,8.7,3.9c2.6,0,5.1-1,6.9-2.7c2.1-2,3.2-4.8,3-7.8
	c-0.1-2.9-1.3-5.7-3.4-7.9c-1.3-1.4-2.9-2.4-4.5-3.1c1.2-2.1,3-4.2,5.5-6.2c3.7-2.9,9.2-5.3,16.5-6.6c-4.6,8-8.4,16-11.5,23.8
	c-5.5,13.9-8.5,27.2-8.5,38.7c0,7.8,1.4,14.8,4.5,20.7c3.1,5.8,8,10.3,14.4,12.9c3,1.2,6,1.7,9.1,1.7h0c5.9,0,11.8-2,17.5-5.4
	c4.6-2.8,9.1-6.4,13.3-10.8c8.9,4.9,29.7,6.8,45.5-21.3C347.8,199.6,348.4,149.9,331.1,136"/>
<path class="st0" d="M321.4,135.2c-1.5,0-3.1,0.3-4.6,1c-3.3,1.6-5.8,4.8-6.8,7.5c8,2.7,20,10.9,20,36.3c0,4.6-0.4,9.8-1.3,15.6
	c-4,25.9-18.4,43.4-29.9,46.8c-3.2,0.9-6.1,0.8-8.5-0.4c7.3-9.9,13.5-21.7,17.8-33.9c13.2-38.7-3.4-53.6-11.8-53.6
	c-27.3-0.9-44.1,65.7-20.3,89.6c-8.2,8.9-17.7,13.7-27.4,10.2c-22.1-7.9-2.2-67.6,21.1-102.8c-57.2,0-70.7,35.1-55.8,49.8
	c3.3,3.5,8.4,4,11.4,1.1c3-2.9,2.8-8-0.5-11.5c-1.8-1.9-4.2-2.9-6.5-3c2.4-8.3,12.3-17,31.7-18.6c-26.2,43.1-31.7,86.7-5.6,96.9
	c12.3,4.8,26.4-2.4,38.6-15.6c3.4,1.9,8.2,3.6,12.4,3.6c8.2-0.1,20.2-3.9,30.6-22.5c8.7-15.5,13.9-35.4,14.3-54.6
	c0.4-18.3-3.9-32.8-11.3-38.8C326.6,136.3,324,135.3,321.4,135.2L321.4,135.2L321.4,135.2z M292.8,171c14.7,0,6.8,39.8-10.1,64.8
	C268,216.1,276.7,171,292.8,171z M158.9,201.5l-2.7,8.3h-8.8l7.1,5.1l-2.7,8.3l7.1-5.1l7.1,5.1l-2.7-8.3l7.1-5.1h-8.8L158.9,201.5
	L158.9,201.5z M401.1,201.5l-2.7,8.3h-8.8l7.1,5.1l-2.7,8.3l7.1-5.1l7.1,5.1l-2.7-8.3l7.1-5.1h-8.8L401.1,201.5z"/>
</svg>
