<?xml version="1.0" encoding="utf-8"?>
<!-- Generator: Adobe Illustrator 25.2.0, SVG Export Plug-In . SVG Version: 6.00 Build 0)  -->
<svg version="1.1" id="Layer_1" xmlns="http://www.w3.org/2000/svg" xmlns:xlink="http://www.w3.org/1999/xlink" x="0px" y="0px"
	 viewBox="0 0 420 300" style="enable-background:new 0 0 420 300;" xml:space="preserve">
<style type="text/css">
	.st0{display:none;fill-rule:evenodd;clip-rule:evenodd;fill:#E81828;}
	.st1{fill:#FFFFFF;}
	.st2{fill:none;stroke:#FFFFFF;stroke-width:1.49;stroke-miterlimit:3.8636;}
</style>
<path class="st0" d="M126.8,66.8h166.5v166.5H126.8V66.8z"/>
<path class="st1" d="M246.3,111.2c-1.4-12.3-8.8-18.1-21.8-17.2l-3.4,0.2V136l4.3-0.8C239.4,132.6,247.6,123.2,246.3,111.2
	 M187.7,118.4c0,0-4.3,26.7-25.3,17.3c-12.6-5.6-13.9-27.6,5.7-46.8c29.2-28.4,101.4-21.5,98.5,23.7c-1.6,25.7-20.4,36-46.2,45.4
	v47.5c0,14.4-14.9,24.4-27.2,22.3c-13.1-2.3-13.5-18,2.2-34.5V98.3C183.4,103.3,175.4,118.7,187.7,118.4L187.7,118.4z"/>
<path class="st2" d="M246.3,111.2c-1.4-12.3-8.8-18.1-21.8-17.2l-3.4,0.2V136l4.3-0.8C239.4,132.6,247.6,123.2,246.3,111.2
	L246.3,111.2z M187.7,118.4c0,0-4.3,26.7-25.3,17.3c-12.6-5.6-13.9-27.6,5.7-46.8c29.2-28.4,101.4-21.5,98.5,23.7
	c-1.6,25.7-20.4,36-46.2,45.4v47.5c0,14.4-14.9,24.4-27.2,22.3c-13.1-2.3-13.5-18,2.2-34.5V98.3
	C183.4,103.3,175.4,118.7,187.7,118.4L187.7,118.4z"/>
</svg>
